# xmcd CD database file generated by OrangeCD 5.2
#
# Track frame offsets:
#	150
#	23660
#	50565
#	80424
#	121146
#	146235
#	168931
#	185282
#
# Disc length: 2859 seconds
#
# Revision: 1
# Processed by: cddbd v1.5.1PL2 Copyright (c) Steve Scherf et al.
# Submitted via: OrangeCD 5.2
#
DISCID=620b2908
DTITLE=Various Artist - Radio Pyongyang: Commie Funk and Agit Pop from the Her
DTITLE=mit Kingdom
DYEAR=2005
DGENRE=Country
TTITLE0=Motherland Megamix
TTITLE1=New Model Army
TTITLE2=Numbers Game
TTITLE3=Pride of the Nation
TTITLE4=Start 'Em Young
TTITLE5=Arirang
TTITLE6=Commie Funk?
TTITLE7=Motherland Redux
EXTD=
EXTT0=
EXTT1=
EXTT2=
EXTT3=
EXTT4=
EXTT5=
EXTT6=
EXTT7=
PLAYORDER=
